<svg width="130" height="170" viewBox="0 0 130 170" fill="none" xmlns="http://www.w3.org/2000/svg">
<rect x="3.32764" y="0.5" width="124" height="169" rx="7.5" stroke="white"/>
<foreignObject x="60.312" y="79" width="62" height="62"><div xmlns="http://www.w3.org/1999/xhtml" style="backdrop-filter:blur(2px);clip-path:url(#bgblur_0_17_3676_clip_path);height:100%;width:100%"></div></foreignObject><g filter="url(#filter0_d_17_3676)" data-figma-bg-blur-radius="4">
<circle cx="91.312" cy="110" r="16" fill="url(#paint0_linear_17_3676)" fill-opacity="0.4" shape-rendering="crispEdges"/>
<circle cx="91.312" cy="110" r="15" stroke="#FFD4B8" stroke-opacity="0.4" stroke-width="2" shape-rendering="crispEdges"/>
</g>
<g filter="url(#filter1_d_17_3676)">
<path d="M109.795 150C112.842 150 115.375 147.498 114.681 144.531C113.67 140.211 111.471 136.218 108.283 133.029C103.782 128.529 97.6772 126 91.312 126C84.9468 126 78.8423 128.529 74.3414 133.029C71.1531 136.218 68.9545 140.211 67.9433 144.531C67.2489 147.498 69.7821 150 72.8292 150L109.795 150Z" fill="url(#paint1_linear_17_3676)"/>
</g>
<g filter="url(#filter2_d_17_3676)">
<path d="M84.8392 114.637C84.4386 114.929 84.3472 115.495 84.6774 115.865C85.4176 116.695 86.3071 117.383 87.302 117.889C88.5643 118.532 89.9604 118.866 91.3763 118.865C92.7922 118.863 94.1876 118.526 95.4485 117.881C96.4424 117.372 97.3305 116.683 98.069 115.851C98.3984 115.48 98.3058 114.915 97.9046 114.623C97.5034 114.332 96.9462 114.426 96.6076 114.789C96.0417 115.395 95.3738 115.9 94.6322 116.279C93.6235 116.796 92.5072 117.066 91.3744 117.067C90.2417 117.068 89.1248 116.8 88.115 116.286C87.3727 115.908 86.7037 115.404 86.1365 114.8C85.7972 114.438 85.2398 114.345 84.8392 114.637Z" fill="white"/>
</g>
<g filter="url(#filter3_d_17_3676)">
<rect x="16.5991" y="19" width="59.6491" height="38.1754" rx="10" fill="url(#paint2_linear_17_3676)"/>
</g>
<foreignObject x="0" y="13.8828" width="91.6362" height="64.4961"><div xmlns="http://www.w3.org/1999/xhtml" style="backdrop-filter:blur(2px);clip-path:url(#bgblur_1_17_3676_clip_path);height:100%;width:100%"></div></foreignObject><g filter="url(#filter4_d_17_3676)" data-figma-bg-blur-radius="4">
<path d="M31.9997 30.7773L15.6049 57.2739C13.9561 59.9387 15.8728 63.3786 19.0064 63.3786H72.6299C75.7676 63.3786 77.6836 59.9308 76.0267 57.2663L65.5979 40.4957C64.0256 37.9672 60.3406 37.9815 58.788 40.5222L55.1127 46.5363C53.5468 49.0988 49.8207 49.0861 48.2723 46.513L38.8285 30.8195C37.2851 28.2547 33.5747 28.2318 31.9997 30.7773Z" fill="url(#paint3_linear_17_3676)" fill-opacity="0.4" shape-rendering="crispEdges"/>
<path d="M32.8501 31.3037C34.0313 29.3947 36.8135 29.4117 37.9712 31.335L47.4155 47.0283C49.3511 50.2447 54.0089 50.2607 55.9663 47.0576L59.6411 41.0439C60.8055 39.1386 63.5692 39.1274 64.7485 41.0234L75.1772 57.7939C76.4199 59.7922 74.9834 62.3786 72.6304 62.3789H19.0063C16.6562 62.3789 15.2189 59.7984 16.4556 57.7998L32.8501 31.3037Z" stroke="#FFD4B8" stroke-opacity="0.4" stroke-width="2" shape-rendering="crispEdges"/>
</g>
<g filter="url(#filter5_d_17_3676)">
<circle cx="54.5354" cy="30.2137" r="5.01053" fill="white"/>
</g>
<path d="M58.4526 86.375C58.4858 86.375 58.5181 86.3877 58.5415 86.4111C58.5649 86.4346 58.5776 86.4668 58.5776 86.5V86.502C58.5817 88.0475 59.0483 89.5563 59.9165 90.835C60.7848 92.1136 62.0155 93.1039 63.4507 93.6777C64.8857 94.2514 66.4598 94.3831 67.9702 94.0557C69.4806 93.7281 70.8587 92.9565 71.9272 91.8398L73.1411 90.5713H69.2847C69.2517 90.5712 69.2201 90.5575 69.1968 90.5342C69.1735 90.5108 69.1597 90.4793 69.1597 90.4463C69.1597 90.4131 69.1733 90.3809 69.1968 90.3574C69.2201 90.3342 69.2518 90.3214 69.2847 90.3213H73.2261L73.2729 90.3311C73.2875 90.3374 73.3007 90.3469 73.312 90.3584C73.3329 90.3797 73.3452 90.4078 73.3472 90.4375V94.375C73.3472 94.4082 73.3345 94.4404 73.311 94.4639C73.2876 94.4872 73.2552 94.5 73.2222 94.5C73.1893 94.4999 73.1576 94.487 73.1343 94.4639C73.1108 94.4404 73.0972 94.4082 73.0972 94.375V91.082L71.8315 92.2822C70.6979 93.3569 69.2744 94.0764 67.7368 94.3516C66.1991 94.6267 64.6142 94.4451 63.1782 93.8301C61.7422 93.215 60.5177 92.1926 59.6558 90.8896C58.7942 89.5873 58.3323 88.0615 58.3276 86.5C58.3276 86.4668 58.3403 86.4346 58.3638 86.4111C58.3872 86.3877 58.4195 86.375 58.4526 86.375ZM74.0776 86.4971C74.0717 84.9523 73.6039 83.4442 72.7349 82.167C71.8659 80.89 70.6352 79.9017 69.2007 79.3291C67.766 78.7565 66.1927 78.6253 64.6831 78.9531C63.1735 79.2809 61.796 80.0528 60.728 81.1689L59.5142 82.4375H63.3706C63.4035 82.4376 63.4352 82.4505 63.4585 82.4736C63.4819 82.4971 63.4956 82.5293 63.4956 82.5625C63.4956 82.5957 63.4819 82.6279 63.4585 82.6514C63.4352 82.6745 63.4035 82.6874 63.3706 82.6875H59.4331C59.4001 82.6875 59.3677 82.6747 59.3442 82.6514C59.3208 82.6279 59.3081 82.5957 59.3081 82.5625V78.625C59.3081 78.5918 59.3208 78.5596 59.3442 78.5361C59.3677 78.5128 59.4001 78.5 59.4331 78.5C59.466 78.5001 59.4977 78.513 59.521 78.5361C59.5444 78.5596 59.5581 78.5918 59.5581 78.625V81.9277L60.8257 80.7158C62.3082 79.2992 64.2782 78.5061 66.3286 78.5C67.3789 78.5001 68.4189 78.7075 69.3892 79.1094C70.3597 79.5114 71.242 80.1 71.9849 80.8428C72.7277 81.5856 73.3162 82.4679 73.7183 83.4385C74.1203 84.4091 74.3276 85.4494 74.3276 86.5C74.3276 86.5332 74.3149 86.5654 74.2915 86.5889C74.2681 86.6123 74.2358 86.625 74.2026 86.625C74.1695 86.625 74.1372 86.6123 74.1138 86.5889C74.0903 86.5654 74.0776 86.5332 74.0776 86.5V86.4971Z" fill="#9E9E9E" stroke="#9E9E9E" stroke-width="1.5"/>
<line x1="117.954" y1="12.6958" x2="75.5234" y2="73.8741" stroke="white" stroke-linecap="round" stroke-dasharray="4 4"/>
<line x1="55.9535" y1="99.6958" x2="13.5234" y2="160.874" stroke="white" stroke-linecap="round" stroke-dasharray="4 4"/>
<defs>
<filter id="filter0_d_17_3676" x="60.312" y="79" width="62" height="62" filterUnits="userSpaceOnUse" color-interpolation-filters="sRGB">
<feFlood flood-opacity="0" result="BackgroundImageFix"/>
<feColorMatrix in="SourceAlpha" type="matrix" values="0 0 0 0 0 0 0 0 0 0 0 0 0 0 0 0 0 0 127 0" result="hardAlpha"/>
<feOffset/>
<feGaussianBlur stdDeviation="7.5"/>
<feComposite in2="hardAlpha" operator="out"/>
<feColorMatrix type="matrix" values="0 0 0 0 0.94902 0 0 0 0 0.494118 0 0 0 0 0.207843 0 0 0 0.5 0"/>
<feBlend mode="normal" in2="BackgroundImageFix" result="effect1_dropShadow_17_3676"/>
<feBlend mode="normal" in="SourceGraphic" in2="effect1_dropShadow_17_3676" result="shape"/>
</filter>
<clipPath id="bgblur_0_17_3676_clip_path" transform="translate(-60.312 -79)"><circle cx="91.312" cy="110" r="16"/>
</clipPath><filter id="filter1_d_17_3676" x="52.8276" y="111" width="76.9688" height="54" filterUnits="userSpaceOnUse" color-interpolation-filters="sRGB">
<feFlood flood-opacity="0" result="BackgroundImageFix"/>
<feColorMatrix in="SourceAlpha" type="matrix" values="0 0 0 0 0 0 0 0 0 0 0 0 0 0 0 0 0 0 127 0" result="hardAlpha"/>
<feOffset/>
<feGaussianBlur stdDeviation="7.5"/>
<feComposite in2="hardAlpha" operator="out"/>
<feColorMatrix type="matrix" values="0 0 0 0 0.94902 0 0 0 0 0.494118 0 0 0 0 0.207843 0 0 0 0.5 0"/>
<feBlend mode="normal" in2="BackgroundImageFix" result="effect1_dropShadow_17_3676"/>
<feBlend mode="normal" in="SourceGraphic" in2="effect1_dropShadow_17_3676" result="shape"/>
</filter>
<filter id="filter2_d_17_3676" x="64.4761" y="94.4512" width="53.7932" height="44.4141" filterUnits="userSpaceOnUse" color-interpolation-filters="sRGB">
<feFlood flood-opacity="0" result="BackgroundImageFix"/>
<feColorMatrix in="SourceAlpha" type="matrix" values="0 0 0 0 0 0 0 0 0 0 0 0 0 0 0 0 0 0 127 0" result="hardAlpha"/>
<feMorphology radius="5" operator="dilate" in="SourceAlpha" result="effect1_dropShadow_17_3676"/>
<feOffset/>
<feGaussianBlur stdDeviation="7.5"/>
<feComposite in2="hardAlpha" operator="out"/>
<feColorMatrix type="matrix" values="0 0 0 0 0.94902 0 0 0 0 0.494118 0 0 0 0 0.207843 0 0 0 0.5 0"/>
<feBlend mode="normal" in2="BackgroundImageFix" result="effect1_dropShadow_17_3676"/>
<feBlend mode="normal" in="SourceGraphic" in2="effect1_dropShadow_17_3676" result="shape"/>
</filter>
<filter id="filter3_d_17_3676" x="1.59912" y="4" width="89.6492" height="68.1758" filterUnits="userSpaceOnUse" color-interpolation-filters="sRGB">
<feFlood flood-opacity="0" result="BackgroundImageFix"/>
<feColorMatrix in="SourceAlpha" type="matrix" values="0 0 0 0 0 0 0 0 0 0 0 0 0 0 0 0 0 0 127 0" result="hardAlpha"/>
<feOffset/>
<feGaussianBlur stdDeviation="7.5"/>
<feComposite in2="hardAlpha" operator="out"/>
<feColorMatrix type="matrix" values="0 0 0 0 0.94902 0 0 0 0 0.494118 0 0 0 0 0.207843 0 0 0 0.5 0"/>
<feBlend mode="normal" in2="BackgroundImageFix" result="effect1_dropShadow_17_3676"/>
<feBlend mode="normal" in="SourceGraphic" in2="effect1_dropShadow_17_3676" result="shape"/>
</filter>
<filter id="filter4_d_17_3676" x="0" y="13.8828" width="91.6362" height="64.4961" filterUnits="userSpaceOnUse" color-interpolation-filters="sRGB">
<feFlood flood-opacity="0" result="BackgroundImageFix"/>
<feColorMatrix in="SourceAlpha" type="matrix" values="0 0 0 0 0 0 0 0 0 0 0 0 0 0 0 0 0 0 127 0" result="hardAlpha"/>
<feOffset/>
<feGaussianBlur stdDeviation="7.5"/>
<feComposite in2="hardAlpha" operator="out"/>
<feColorMatrix type="matrix" values="0 0 0 0 0.94902 0 0 0 0 0.494118 0 0 0 0 0.207843 0 0 0 0.5 0"/>
<feBlend mode="normal" in2="BackgroundImageFix" result="effect1_dropShadow_17_3676"/>
<feBlend mode="normal" in="SourceGraphic" in2="effect1_dropShadow_17_3676" result="shape"/>
</filter>
<clipPath id="bgblur_1_17_3676_clip_path" transform="translate(0 -13.8828)"><path d="M31.9997 30.7773L15.6049 57.2739C13.9561 59.9387 15.8728 63.3786 19.0064 63.3786H72.6299C75.7676 63.3786 77.6836 59.9308 76.0267 57.2663L65.5979 40.4957C64.0256 37.9672 60.3406 37.9815 58.788 40.5222L55.1127 46.5363C53.5468 49.0988 49.8207 49.0861 48.2723 46.513L38.8285 30.8195C37.2851 28.2547 33.5747 28.2318 31.9997 30.7773Z"/>
</clipPath><filter id="filter5_d_17_3676" x="29.5249" y="5.20312" width="50.021" height="50.0215" filterUnits="userSpaceOnUse" color-interpolation-filters="sRGB">
<feFlood flood-opacity="0" result="BackgroundImageFix"/>
<feColorMatrix in="SourceAlpha" type="matrix" values="0 0 0 0 0 0 0 0 0 0 0 0 0 0 0 0 0 0 127 0" result="hardAlpha"/>
<feMorphology radius="5" operator="dilate" in="SourceAlpha" result="effect1_dropShadow_17_3676"/>
<feOffset/>
<feGaussianBlur stdDeviation="7.5"/>
<feComposite in2="hardAlpha" operator="out"/>
<feColorMatrix type="matrix" values="0 0 0 0 0.94902 0 0 0 0 0.494118 0 0 0 0 0.207843 0 0 0 0.5 0"/>
<feBlend mode="normal" in2="BackgroundImageFix" result="effect1_dropShadow_17_3676"/>
<feBlend mode="normal" in="SourceGraphic" in2="effect1_dropShadow_17_3676" result="shape"/>
</filter>
<linearGradient id="paint0_linear_17_3676" x1="91.312" y1="94" x2="91.312" y2="126" gradientUnits="userSpaceOnUse">
<stop stop-color="#FF5874"/>
<stop offset="1" stop-color="#FFAC4C"/>
</linearGradient>
<linearGradient id="paint1_linear_17_3676" x1="91.3121" y1="126" x2="91.3121" y2="151.655" gradientUnits="userSpaceOnUse">
<stop stop-color="#FF5874"/>
<stop offset="1" stop-color="#FFAC4C"/>
</linearGradient>
<linearGradient id="paint2_linear_17_3676" x1="46.4237" y1="19" x2="46.4237" y2="57.1754" gradientUnits="userSpaceOnUse">
<stop stop-color="#FF5874"/>
<stop offset="1" stop-color="#FFAC4C"/>
</linearGradient>
<linearGradient id="paint3_linear_17_3676" x1="45.8276" y1="25.2031" x2="45.8276" y2="63.3786" gradientUnits="userSpaceOnUse">
<stop stop-color="#FF5874"/>
<stop offset="1" stop-color="#FFAC4C"/>
</linearGradient>
</defs>
</svg>
